<mxfile host="Electron" agent="Mozilla/5.0 (Macintosh; Intel Mac OS X 10_15_7) AppleWebKit/537.36 (KHTML, like Gecko) draw.io/26.2.2 Chrome/134.0.6998.178 Electron/35.1.2 Safari/537.36" version="26.2.2">
  <diagram name="Page-1" id="X3EOScUnXfwoyKRGTEeu">
    <mxGraphModel dx="1236" dy="917" grid="1" gridSize="10" guides="1" tooltips="1" connect="1" arrows="1" fold="1" page="1" pageScale="1" pageWidth="1169" pageHeight="827" math="0" shadow="0">
      <root>
        <mxCell id="0" />
        <mxCell id="1" parent="0" />
        <mxCell id="pfvdHp6aUZQWzOE-w3Th-5" value="&lt;font style=&quot;font-size: 15px;&quot;&gt;User Space&lt;/font&gt;" style="swimlane;whiteSpace=wrap;html=1;" vertex="1" parent="1">
          <mxGeometry x="240" y="80" width="200" height="280" as="geometry" />
        </mxCell>
        <mxCell id="pfvdHp6aUZQWzOE-w3Th-7" value="&lt;font style=&quot;font-size: 15px;&quot;&gt;App requests&lt;/font&gt;&lt;div&gt;&lt;font style=&quot;font-size: 15px;&quot;&gt;privileged action&lt;/font&gt;&lt;/div&gt;" style="shape=process;whiteSpace=wrap;html=1;backgroundOutline=1;fillColor=#ffe6cc;strokeColor=#d79b00;" vertex="1" parent="pfvdHp6aUZQWzOE-w3Th-5">
          <mxGeometry x="20" y="40" width="160" height="60" as="geometry" />
        </mxCell>
        <mxCell id="pfvdHp6aUZQWzOE-w3Th-16" value="&lt;span style=&quot;font-size: 15px;&quot;&gt;App continues execution&lt;/span&gt;" style="shape=process;whiteSpace=wrap;html=1;backgroundOutline=1;fillColor=#ffe6cc;strokeColor=#d79b00;" vertex="1" parent="pfvdHp6aUZQWzOE-w3Th-5">
          <mxGeometry x="20" y="200" width="160" height="60" as="geometry" />
        </mxCell>
        <mxCell id="pfvdHp6aUZQWzOE-w3Th-6" value="&lt;font style=&quot;font-size: 15px;&quot;&gt;Kernel Space&lt;/font&gt;" style="swimlane;whiteSpace=wrap;html=1;" vertex="1" parent="1">
          <mxGeometry x="519" y="80" width="200" height="280" as="geometry" />
        </mxCell>
        <mxCell id="pfvdHp6aUZQWzOE-w3Th-20" style="edgeStyle=orthogonalEdgeStyle;rounded=0;orthogonalLoop=1;jettySize=auto;html=1;exitX=0.5;exitY=1;exitDx=0;exitDy=0;entryX=0.5;entryY=0;entryDx=0;entryDy=0;" edge="1" parent="pfvdHp6aUZQWzOE-w3Th-6" source="pfvdHp6aUZQWzOE-w3Th-8" target="pfvdHp6aUZQWzOE-w3Th-14">
          <mxGeometry relative="1" as="geometry" />
        </mxCell>
        <mxCell id="pfvdHp6aUZQWzOE-w3Th-8" value="&lt;font style=&quot;font-size: 15px;&quot; face=&quot;Helvetica&quot;&gt;System Call&lt;/font&gt;&lt;div&gt;&lt;font style=&quot;font-size: 15px;&quot; face=&quot;Helvetica&quot;&gt;Identified&lt;/font&gt;&lt;/div&gt;" style="shape=process;whiteSpace=wrap;html=1;backgroundOutline=1;hachureGap=4;fontFamily=Architects Daughter;fontSource=https%3A%2F%2Ffonts.googleapis.com%2Fcss%3Ffamily%3DArchitects%2BDaughter;fillColor=#e1d5e7;strokeColor=#9673a6;" vertex="1" parent="pfvdHp6aUZQWzOE-w3Th-6">
          <mxGeometry x="20" y="40" width="160" height="60" as="geometry" />
        </mxCell>
        <mxCell id="pfvdHp6aUZQWzOE-w3Th-21" style="edgeStyle=orthogonalEdgeStyle;rounded=0;orthogonalLoop=1;jettySize=auto;html=1;exitX=0.5;exitY=1;exitDx=0;exitDy=0;entryX=0.5;entryY=0;entryDx=0;entryDy=0;" edge="1" parent="pfvdHp6aUZQWzOE-w3Th-6" source="pfvdHp6aUZQWzOE-w3Th-14" target="pfvdHp6aUZQWzOE-w3Th-15">
          <mxGeometry relative="1" as="geometry" />
        </mxCell>
        <mxCell id="pfvdHp6aUZQWzOE-w3Th-14" value="&lt;font style=&quot;font-size: 15px;&quot; face=&quot;Helvetica&quot;&gt;Kernel fulfils system call&lt;/font&gt;" style="shape=process;whiteSpace=wrap;html=1;backgroundOutline=1;hachureGap=4;fontFamily=Architects Daughter;fontSource=https%3A%2F%2Ffonts.googleapis.com%2Fcss%3Ffamily%3DArchitects%2BDaughter;fillColor=#e1d5e7;strokeColor=#9673a6;" vertex="1" parent="pfvdHp6aUZQWzOE-w3Th-6">
          <mxGeometry x="20" y="120" width="160" height="60" as="geometry" />
        </mxCell>
        <mxCell id="pfvdHp6aUZQWzOE-w3Th-15" value="&lt;font face=&quot;Helvetica&quot;&gt;&lt;span style=&quot;font-size: 15px;&quot;&gt;Return values prepared&lt;/span&gt;&lt;/font&gt;" style="shape=process;whiteSpace=wrap;html=1;backgroundOutline=1;hachureGap=4;fontFamily=Architects Daughter;fontSource=https%3A%2F%2Ffonts.googleapis.com%2Fcss%3Ffamily%3DArchitects%2BDaughter;fillColor=#e1d5e7;strokeColor=#9673a6;" vertex="1" parent="pfvdHp6aUZQWzOE-w3Th-6">
          <mxGeometry x="20" y="200" width="160" height="60" as="geometry" />
        </mxCell>
        <mxCell id="pfvdHp6aUZQWzOE-w3Th-9" value="" style="endArrow=none;dashed=1;html=1;rounded=0;" edge="1" parent="1">
          <mxGeometry width="50" height="50" relative="1" as="geometry">
            <mxPoint x="480" y="400" as="sourcePoint" />
            <mxPoint x="480" y="40" as="targetPoint" />
          </mxGeometry>
        </mxCell>
        <mxCell id="pfvdHp6aUZQWzOE-w3Th-22" value="&lt;font style=&quot;font-size: 15px;&quot;&gt;Return&lt;/font&gt;&lt;div&gt;&lt;font style=&quot;font-size: 15px;&quot;&gt;Values&lt;/font&gt;&lt;/div&gt;" style="edgeLabel;html=1;align=center;verticalAlign=middle;resizable=0;points=[];" vertex="1" connectable="0" parent="pfvdHp6aUZQWzOE-w3Th-9">
          <mxGeometry x="-0.475" y="4" relative="1" as="geometry">
            <mxPoint y="4" as="offset" />
          </mxGeometry>
        </mxCell>
        <mxCell id="pfvdHp6aUZQWzOE-w3Th-17" style="edgeStyle=orthogonalEdgeStyle;rounded=0;orthogonalLoop=1;jettySize=auto;html=1;exitX=1;exitY=0.5;exitDx=0;exitDy=0;entryX=0;entryY=0.5;entryDx=0;entryDy=0;" edge="1" parent="1" source="pfvdHp6aUZQWzOE-w3Th-7" target="pfvdHp6aUZQWzOE-w3Th-8">
          <mxGeometry relative="1" as="geometry" />
        </mxCell>
        <mxCell id="pfvdHp6aUZQWzOE-w3Th-18" value="&lt;font style=&quot;font-size: 14px;&quot;&gt;Syscall&lt;/font&gt;" style="edgeLabel;html=1;align=center;verticalAlign=middle;resizable=0;points=[];" vertex="1" connectable="0" parent="pfvdHp6aUZQWzOE-w3Th-17">
          <mxGeometry x="0.025" y="1" relative="1" as="geometry">
            <mxPoint y="1" as="offset" />
          </mxGeometry>
        </mxCell>
        <mxCell id="pfvdHp6aUZQWzOE-w3Th-19" style="edgeStyle=orthogonalEdgeStyle;rounded=0;orthogonalLoop=1;jettySize=auto;html=1;exitX=0;exitY=0.5;exitDx=0;exitDy=0;entryX=1;entryY=0.5;entryDx=0;entryDy=0;" edge="1" parent="1">
          <mxGeometry relative="1" as="geometry">
            <mxPoint x="539" y="310" as="sourcePoint" />
            <mxPoint x="420" y="310" as="targetPoint" />
          </mxGeometry>
        </mxCell>
      </root>
    </mxGraphModel>
  </diagram>
</mxfile>
